# xmcd
#
# Track frame offsets: 
#        150
#        14292
#        36867
#        60027
#        89252
#        108767
#        124812
#        148920
#        174337
#
# Disc length: 2534 seconds
#
# Revision: 1
# Processed by: cddbd v1.5.2PL0 Copyright (c) Steve Scherf et al.
# Submitted via: ExactAudioCopy v0.99pb4
#
DISCID=6a09e409
DTITLE=Big Bill Hickey, Jimmy Rogers, Hubert Sumlin and Friends - Bill's
DTITLE=Blues
DYEAR=1995
DGENRE=Blues
TTITLE0=Slick Chick - Jimmy Rogers
TTITLE1=When It Comes to Love - Willy Murphy
TTITLE2=Feed Me - Hubert Sumlin
TTITLE3=I am the Blues - 
TTITLE4=Talk to Me, Baby
TTITLE5=Easy (instrumental)
TTITLE6=Crazy Woman - Jimmy Rogers
TTITLE7=Shake, Rattle and Roll
TTITLE8=Put the Kettle on 
EXTD=YEAR: 1995
EXTT0=
EXTT1=
EXTT2=
EXTT3=
EXTT4=
EXTT5=
EXTT6=
EXTT7=
EXTT8=
PLAYORDER=
